<?xml version="1.0" encoding="utf-8"?>
<svg version="1.1" xmlns="http://www.w3.org/2000/svg" x="0px" y="0px" viewBox="0 0 32 32" style="enable-background:new 0 0 32 32;">
  <defs>
    <linearGradient gradientUnits="userSpaceOnUse" x1="19.081" y1="3.425" x2="19.081" y2="28.757" id="gradient-0" gradientTransform="matrix(0.001663, 0.999998, -0.780068, 0.001297, 33.550284, -3.030728)">
      <stop offset="0" style="stop-color: rgb(17, 38, 209);"/>
      <stop offset="1" style="stop-color: rgb(52, 5, 126);"/>
    </linearGradient>
  </defs>
  <style type="text/css">
	.st0{display:none;}
	.st1{display:inline;}
	.st2{fill:#6621BA;}
	.st3{fill:#F98A17;}
</style>
  <g id="Layer_1" class="st0"/>
  <g id="Layer_2"/>
  <g id="Layer_3"/>
  <g id="Layer_4"/>
  <g id="Layer_5"/>
  <g id="Layer_6"/>
  <g id="Layer_7"/>
  <g id="Layer_8"/>
  <g id="Layer_9"/>
  <g id="Layer_10"/>
  <g id="Layer_11"/>
  <g id="Layer_12"/>
  <g id="Layer_13"/>
  <g id="Layer_14"/>
  <g id="Layer_15"/>
  <g id="Layer_16"/>
  <g id="Layer_17"/>
  <g id="Layer_18"/>
  <g id="Layer_19">
    <path class="st2" d="M 29.689 13.97 L 10.541 3.619 C 9.669 3.149 8.631 3.273 7.894 3.937 C 7.158 4.603 6.929 5.623 7.31 6.539 L 11.168 15.805 C 11.22 15.931 11.22 16.07 11.168 16.196 L 7.307 25.469 C 6.927 26.383 7.156 27.404 7.89 28.068 C 8.329 28.464 8.875 28.669 9.43 28.669 C 9.805 28.669 10.182 28.575 10.534 28.386 L 29.689 18.03 C 30.437 17.626 30.9 16.849 30.9 16 C 30.9 15.151 30.437 14.374 29.689 13.97 Z" style="fill: url(&quot;#gradient-0&quot;);"/>
    <path class="st3" d="M2,11.145h3.405c0.497,0,0.9-0.403,0.9-0.9s-0.403-0.9-0.9-0.9H2c-0.497,0-0.9,0.403-0.9,0.9 S1.503,11.145,2,11.145z" style="fill: rgb(40, 0, 102);"/>
    <path class="st3" d="M3.306,16c0,0.497,0.403,0.9,0.9,0.9H7.61c0.497,0,0.9-0.403,0.9-0.9s-0.403-0.9-0.9-0.9H4.206 C3.708,15.1,3.306,15.503,3.306,16z" style="fill: rgb(40, 0, 102);"/>
    <path class="st3" d="M5.405,20.855H2c-0.497,0-0.9,0.403-0.9,0.9s0.403,0.9,0.9,0.9h3.405c0.497,0,0.9-0.403,0.9-0.9 S5.902,20.855,5.405,20.855z" style="fill: rgb(40, 0, 102);"/>
  </g>
  <g id="Layer_20"/>
  <g id="Layer_21"/>
  <g id="Layer_22"/>
  <g id="Layer_23"/>
  <g id="Layer_24"/>
  <g id="Layer_25"/>
  <g id="Layer_26"/>
</svg>